<svg xmlns="http://www.w3.org/2000/svg" viewBox="0 0 50 40" fill="none">
  <!-- Hudl Logo - Orange Icon (Left Part) -->
  <g>
    <!-- Orange abstract icon - three claw/petal shapes swirling counter-clockwise -->
    <circle cx="20" cy="20" r="18" fill="#FF6B35"/>
    
    <!-- Three petal/claw shapes creating the abstract swirling icon -->
    <path d="M20 2 C26 6, 30 12, 30 20 C30 28, 26 34, 20 38 C14 34, 10 28, 10 20 C10 12, 14 6, 20 2 Z" fill="black" opacity="0.4"/>
    <path d="M20 4 C24 7, 28 13, 28 20 C28 27, 24 33, 20 36 C16 33, 12 27, 12 20 C12 13, 16 7, 20 4 Z" fill="#FF6B35"/>
    
    <!-- Center negative space -->
    <circle cx="20" cy="20" r="10" fill="black"/>
    
    <!-- Additional swirl details -->
    <path d="M20 8 C23 10, 25 14, 25 20 C25 26, 23 30, 20 32 C17 30, 15 26, 15 20 C15 14, 17 10, 20 8 Z" fill="#FF6B35" opacity="0.8"/>
  </g>
</svg>
